<?xml version="1.0" encoding="UTF-8"?> <svg xmlns="http://www.w3.org/2000/svg" id="Layer_1" data-name="Layer 1" viewBox="0 0 500 500"><defs><style>.cls-1{fill:#d86e28;}</style></defs><path class="cls-1" d="M265.43,264.39H234.57a5.41,5.41,0,0,0,0,10.82h30.86a5.41,5.41,0,0,0,0-10.82Z"></path><path class="cls-1" d="M265.43,119.28H234.57a5.42,5.42,0,0,0,0,10.83h30.86a5.42,5.42,0,0,0,0-10.83Z"></path><path class="cls-1" d="M158.39,360H341.61V233.76H158.39Zm10.82-115.38H330.79V349.14H169.21Z"></path><path class="cls-1" d="M158.39,214.86H341.61V88.66H158.39ZM169.21,99.48H330.79V204H169.21Z"></path><path class="cls-1" d="M134.91,64.07V416h14.62v19.89H350.47V416h14.62v-352ZM341.61,360H158.39V233.76H341.61Zm0-145.11H158.39V88.66H341.61Z"></path></svg> 