<?xml version="1.0" encoding="UTF-8"?> <svg xmlns="http://www.w3.org/2000/svg" id="Layer_1" data-name="Layer 1" viewBox="0 0 500 500"><defs><style>.cls-1{fill:#d86e28;}</style></defs><path class="cls-1" d="M399,185.79V157.65a12.75,12.75,0,0,1,12.75-12.75h0l22.75-48H65.5l22.75,48h0A12.75,12.75,0,0,1,101,157.65v28.14h4.5v176H91.25V403.1H164.5V361.78h-13l0-61.53A84.16,84.16,0,0,1,213.66,219a140,140,0,0,1,72.77,0,84.14,84.14,0,0,1,62.07,81.29v61.47H335.25V403.1H408.5V361.78h-14v-176Zm-65.5,37.89a154.6,154.6,0,0,0-166.91-.06l0-36.93H333.5Zm40.63-52H125.88v-16.5H374.13Z"></path></svg> 