<?xml version="1.0" encoding="UTF-8"?> <svg xmlns="http://www.w3.org/2000/svg" width="500" height="500" viewBox="0 0 500 500" fill="none"><path d="M258 178.67V265.67H234V178.67H258V178.67ZM265 171.67H227V272.67H265V171.67Z" fill="#D86E28"></path><path d="M298 110.67H194V125.17H177V110.67H147C145.939 110.67 144.922 111.091 144.172 111.841C143.421 112.592 143 113.609 143 114.67V174.7C143 175.761 143.421 176.778 144.172 177.528C144.922 178.278 145.939 178.7 147 178.7H177V165.2H194V178.7H298V145.2L355.5 165.7V152.31C355.497 146.124 353.583 140.091 350.019 135.036C346.455 129.98 341.415 126.15 335.59 124.07L298 110.67Z" fill="#D86E28"></path><path d="M258 86.1699V95.9199H234V86.1699H258ZM262.63 79.1699H229.38C229.067 79.1686 228.757 79.2293 228.468 79.3484C228.178 79.4676 227.915 79.6428 227.694 79.8641C227.473 80.0853 227.298 80.3482 227.178 80.6376C227.059 80.9269 226.999 81.237 227 81.5499V102.92H265V81.5499C265.001 81.2379 264.941 80.9286 264.823 80.6399C264.704 80.3512 264.53 80.0888 264.309 79.8676C264.089 79.6465 263.827 79.471 263.539 79.3513C263.251 79.2316 262.942 79.1699 262.63 79.1699V79.1699Z" fill="#D86E28"></path><path d="M274.25 281.67H217.75C216.995 281.669 216.246 281.816 215.548 282.105C214.85 282.393 214.215 282.817 213.681 283.351C213.147 283.885 212.724 284.52 212.435 285.218C212.147 285.916 211.999 286.664 212 287.42V445.92C211.999 446.675 212.147 447.424 212.435 448.122C212.724 448.82 213.147 449.455 213.681 449.989C214.215 450.523 214.85 450.946 215.548 451.235C216.246 451.523 216.995 451.671 217.75 451.67H274.25C275.005 451.671 275.754 451.523 276.452 451.235C277.15 450.946 277.785 450.523 278.319 449.989C278.853 449.455 279.277 448.82 279.565 448.122C279.854 447.424 280.001 446.675 280 445.92V287.42C280.001 286.664 279.854 285.916 279.565 285.218C279.277 284.52 278.853 283.885 278.319 283.351C277.785 282.817 277.15 282.393 276.452 282.105C275.754 281.816 275.005 281.669 274.25 281.67V281.67ZM236 432.67C236 433.863 235.526 435.008 234.682 435.852C233.838 436.696 232.693 437.17 231.5 437.17C230.307 437.17 229.162 436.696 228.318 435.852C227.474 435.008 227 433.863 227 432.67V306.17C227 304.976 227.474 303.832 228.318 302.988C229.162 302.144 230.307 301.67 231.5 301.67C232.693 301.67 233.838 302.144 234.682 302.988C235.526 303.832 236 304.976 236 306.17V432.67Z" fill="#D86E28"></path></svg> 