<?xml version="1.0" encoding="UTF-8"?> <svg xmlns="http://www.w3.org/2000/svg" width="500" height="500" viewBox="0 0 500 500" fill="none"><path d="M193.77 274.76H223.42C225.538 274.76 227.632 275.205 229.568 276.065C231.503 276.925 233.237 278.182 234.656 279.754C236.075 281.326 237.149 283.178 237.808 285.191C238.466 287.204 238.695 289.333 238.48 291.44L228.09 393.44C228.245 402.637 232.008 411.405 238.567 417.855C245.126 424.304 253.956 427.918 263.155 427.918C272.354 427.918 281.184 424.304 287.743 417.855C294.302 411.405 298.065 402.637 298.22 393.44L287.83 291.44C287.614 289.332 287.844 287.203 288.503 285.189C289.162 283.175 290.237 281.323 291.657 279.75C293.078 278.178 294.812 276.922 296.749 276.062C298.686 275.202 300.781 274.759 302.9 274.76H334.39V226.6H193.77V274.76ZM261.3 384.76C264.255 384.377 267.256 384.93 269.882 386.34C272.507 387.75 274.624 389.948 275.936 392.623C277.248 395.299 277.689 398.319 277.197 401.258C276.704 404.197 275.304 406.908 273.191 409.01C271.079 411.112 268.361 412.499 265.42 412.977C262.478 413.455 259.461 413 256.792 411.674C254.122 410.349 251.935 408.221 250.538 405.589C249.14 402.957 248.603 399.954 249 397C249.413 393.887 250.842 390.997 253.067 388.78C255.291 386.563 258.185 385.143 261.3 384.74V384.76Z" fill="#D86E28"></path><path d="M337 211.08H191.22L157.28 70.6299H369L337 211.08ZM196.35 204.61H331.81L360.86 77.0999H165.51L196.35 204.61Z" fill="#D86E28"></path><path d="M250.67 83.5801H228.46L190.53 146.76L196.66 173.54L250.67 83.5801Z" fill="#D86E28"></path><path d="M262.06 83.5801H257.27L198.7 181.15L200.12 186.69L262.06 83.5801Z" fill="#D86E28"></path><path d="M296.86 83.46H280.21L212.53 197.25H229.19L296.86 83.46Z" fill="#D86E28"></path></svg> 