<?xml version="1.0" encoding="UTF-8"?> <svg xmlns="http://www.w3.org/2000/svg" width="500" height="500" viewBox="0 0 500 500" fill="none"><path d="M192.72 230.71H299.72V267.9C299.72 282.089 294.083 295.697 284.05 305.73C274.017 315.763 260.409 321.4 246.22 321.4C232.031 321.4 218.423 315.763 208.39 305.73C198.357 295.697 192.72 282.089 192.72 267.9V230.71V230.71Z" fill="#D86E28"></path><path d="M284.74 209H262.08V139.13H284.74V209ZM269.08 202H277.74V146.13H269.08V202Z" fill="#D86E28"></path><path d="M230.37 209H207.71V139.13H230.37V209ZM214.71 202H223.37V146.13H214.71V202Z" fill="#D86E28"></path><path d="M252.93 436.25C154.93 436.25 75.25 356.55 75.25 258.58C75.25 160.61 155 80.8999 252.93 80.8999C350.86 80.8999 430.6 160.61 430.6 258.58C430.6 291.8 420.49 325.66 402.86 351.46C383.34 380.04 355.86 397.28 325.47 400.02C299.6 402.34 273.78 394.25 256.4 378.37C244.56 367.54 238 354.44 238 341.47V276.05H255.4V341.47C255.4 349.38 260.03 358.15 268.11 365.53C281.94 378.17 302.79 384.59 323.88 382.69C379.78 377.69 413.18 315.63 413.18 258.58C413.18 170.2 341.28 98.2999 252.9 98.2999C164.52 98.2999 92.65 170.2 92.65 258.58C92.65 346.96 164.55 418.86 252.93 418.86V436.25Z" fill="#D86E28"></path><path d="M317.99 198.78H174.46V234.63H317.99V198.78Z" fill="#D86E28"></path></svg> 