<?xml version="1.0" encoding="UTF-8"?> <svg xmlns="http://www.w3.org/2000/svg" width="500" height="500" viewBox="0 0 500 500" fill="none"><path d="M428.38 437.67H63.6299V72.9199H428.38V437.67ZM70.6299 430.67H421.38V79.9199H70.6299V430.67Z" fill="#D86E28"></path><path d="M246.01 138.1H67.1299V193.62H246.01V138.1Z" fill="#D86E28"></path><path d="M249.5 258.8H63.6299V72.9199H249.5V258.8ZM70.6299 251.8H242.5V79.9199H70.6299V251.8Z" fill="#D86E28"></path><path d="M424.63 316.97H245.75V372.49H424.63V316.97Z" fill="#D86E28"></path><path d="M428.13 437.67H242.25V251.8H428.13V437.67ZM249.25 430.67H421.13V258.8H249.25V430.67Z" fill="#D86E28"></path><path d="M184.33 434.17V255.3H128.81V434.17H184.33Z" fill="#D86E28"></path><path d="M249.5 437.67H63.6299V251.8H249.5V437.67ZM70.6299 430.67H242.5V258.8H70.6299V430.67Z" fill="#D86E28"></path><path d="M362.95 255.3V76.4199H307.43V255.3H362.95Z" fill="#D86E28"></path><path d="M428.13 258.8H242.25V72.9199H428.13V258.8ZM249.25 251.8H421.13V79.9199H249.25V251.8Z" fill="#D86E28"></path></svg> 