<?xml version="1.0" encoding="UTF-8"?> <svg xmlns="http://www.w3.org/2000/svg" width="500" height="500" viewBox="0 0 500 500" fill="none"><path d="M386.42 82.8699C385.403 81.7987 384.177 80.947 382.819 80.3675C381.46 79.7879 379.997 79.4926 378.52 79.4999H122.52C121.045 79.4985 119.584 79.796 118.227 80.3746C116.87 80.9531 115.644 81.8007 114.624 82.8661C113.603 83.9315 112.809 85.1926 112.289 86.5734C111.77 87.9542 111.535 89.426 111.6 90.8999L116.71 208.4H132.71C135.854 208.4 138.967 209.036 141.859 210.27C144.751 211.504 147.364 213.31 149.54 215.581C151.715 217.851 153.409 220.538 154.52 223.48C155.63 226.422 156.133 229.558 156 232.7L154.27 273.26H346.8L345.07 232.7C344.936 229.558 345.44 226.422 346.55 223.48C347.66 220.538 349.354 217.851 351.53 215.581C353.706 213.31 356.319 211.504 359.211 210.27C362.103 209.036 365.215 208.4 368.36 208.4H384.36L389.46 90.8999C389.528 89.4248 389.293 87.9514 388.771 86.5704C388.248 85.1894 387.448 83.9301 386.42 82.8699V82.8699ZM199.17 229.58C196.721 229.582 194.326 228.857 192.289 227.498C190.252 226.139 188.664 224.206 187.725 221.944C186.787 219.682 186.54 217.193 187.017 214.791C187.493 212.389 188.671 210.182 190.402 208.449C192.133 206.717 194.339 205.537 196.741 205.058C199.143 204.58 201.632 204.825 203.895 205.761C206.158 206.698 208.092 208.285 209.453 210.321C210.814 212.357 211.54 214.751 211.54 217.2C211.54 220.482 210.237 223.629 207.917 225.95C205.598 228.272 202.452 229.577 199.17 229.58ZM199.17 152.18C196.721 152.182 194.326 151.457 192.289 150.098C190.252 148.739 188.664 146.806 187.725 144.544C186.787 142.282 186.54 139.793 187.017 137.391C187.493 134.989 188.671 132.782 190.402 131.049C192.133 129.317 194.339 128.137 196.741 127.659C199.143 127.18 201.632 127.425 203.895 128.361C206.158 129.298 208.092 130.885 209.453 132.921C210.814 134.957 211.54 137.351 211.54 139.8C211.54 143.082 210.237 146.229 207.917 148.55C205.598 150.872 202.452 152.177 199.17 152.18V152.18ZM301.92 229.58C299.471 229.582 297.076 228.857 295.039 227.498C293.002 226.139 291.414 224.206 290.475 221.944C289.537 219.682 289.29 217.193 289.767 214.791C290.243 212.389 291.421 210.182 293.152 208.449C294.883 206.717 297.089 205.537 299.491 205.058C301.893 204.58 304.382 204.825 306.645 205.761C308.908 206.698 310.842 208.285 312.203 210.321C313.564 212.357 314.29 214.751 314.29 217.2C314.29 220.482 312.987 223.629 310.667 225.95C308.348 228.272 305.202 229.577 301.92 229.58V229.58ZM301.92 152.18C299.471 152.182 297.076 151.457 295.039 150.098C293.002 148.739 291.414 146.806 290.475 144.544C289.537 142.282 289.29 139.793 289.767 137.391C290.243 134.989 291.421 132.782 293.152 131.049C294.883 129.317 297.089 128.137 299.491 127.659C301.893 127.18 304.382 127.425 306.645 128.361C308.908 129.298 310.842 130.885 312.203 132.921C313.564 134.957 314.29 137.351 314.29 139.8C314.29 143.082 312.987 146.229 310.667 148.55C308.348 150.872 305.202 152.177 301.92 152.18V152.18Z" fill="#D86E28"></path><path d="M413.58 221.67C412.229 220.251 410.603 219.123 408.801 218.354C406.999 217.586 405.059 217.193 403.1 217.2H368.36C366.404 217.201 364.468 217.598 362.669 218.366C360.87 219.134 359.245 220.258 357.891 221.671C356.538 223.083 355.484 224.754 354.793 226.584C354.102 228.415 353.788 230.366 353.87 232.32L355.61 273.26V273.79H369.7C375.115 273.806 380.304 275.965 384.132 279.795C387.96 283.625 390.117 288.815 390.13 294.23V359.37C390.135 363.529 388.861 367.59 386.48 371H405.58C407.227 371.004 408.812 370.37 410.001 369.231C411.191 368.091 411.893 366.536 411.96 364.89L417.6 232.32C417.691 230.365 417.381 228.411 416.69 226.58C415.998 224.749 414.94 223.078 413.58 221.67V221.67Z" fill="#D86E28"></path><path d="M116.51 280.26C117.599 279.088 118.824 278.05 120.16 277.17C123.487 274.965 127.389 273.79 131.38 273.79H145.45V273.26L147.19 232.32C147.272 230.365 146.958 228.414 146.267 226.584C145.576 224.754 144.522 223.083 143.169 221.67C141.815 220.258 140.19 219.134 138.391 218.366C136.592 217.597 134.656 217.201 132.7 217.2H97.9999C96.0437 217.201 94.1078 217.597 92.3088 218.366C90.5097 219.134 88.8845 220.258 87.531 221.67C86.1775 223.083 85.1235 224.754 84.4325 226.584C83.7415 228.414 83.4277 230.365 83.5099 232.32L89.1499 364.89C89.2145 366.531 89.9116 368.084 91.0952 369.223C92.2789 370.362 93.8573 370.999 95.4999 371H114.6C112.241 367.581 110.985 363.523 111 359.37V294.23C110.985 289.041 112.957 284.042 116.51 280.26Z" fill="#D86E28"></path><path d="M369.7 282.59H131.38C128.295 282.595 125.339 283.824 123.159 286.006C120.978 288.188 119.753 291.146 119.75 294.23V359.37C119.755 362.453 120.982 365.408 123.162 367.588C125.342 369.768 128.297 370.995 131.38 371H369.7C372.783 370.995 375.738 369.768 377.918 367.588C380.098 365.408 381.325 362.453 381.33 359.37V294.23C381.327 291.146 380.102 288.188 377.921 286.006C375.741 283.824 372.785 282.595 369.7 282.59V282.59Z" fill="#D86E28"></path><path d="M353.6 386.34L376.87 431.34H359L335.73 386.34H353.6ZM357.86 379.34H324.18L329.46 389.56L352.73 434.56L354.73 438.35H388.41L383.12 428.13L359.86 383.13L357.86 379.34V379.34Z" fill="#D86E28"></path><path d="M165.4 386.34L142.14 431.34H124.22L147.48 386.34H165.4ZM176.91 379.34H143.22L141.22 383.13L117.96 428.13L112.67 438.35H146.4L148.35 434.56L171.62 389.56L176.91 379.34Z" fill="#D86E28"></path></svg> 