<?xml version="1.0" encoding="UTF-8"?> <svg xmlns="http://www.w3.org/2000/svg" width="500" height="500" viewBox="0 0 500 500" fill="none"><path d="M445.5 94.6201L435.84 158.4L368.49 224.25H280.56L213.2 158.4L203.55 94.6201H229.79L231.01 102.73C234.89 128.34 246.39 151.54 263.48 168.26C280.58 184.98 302.19 194.15 324.48 194.15C346.81 194.15 368.42 184.98 385.48 168.26C402.58 151.54 414.08 128.34 417.95 102.73L419.18 94.6201H445.5Z" fill="#D86E28"></path><path d="M181.55 94.6201H51V165.87L112 224.25H254.37L191.94 163.21L181.55 94.6201Z" fill="#D86E28"></path><path d="M250.08 434.17H181.08V320C181.08 312.043 184.241 304.413 189.867 298.787C195.493 293.161 203.124 290 211.08 290H290V238.67H359V329C359 336.956 355.839 344.587 350.213 350.213C344.587 355.839 336.957 359 329 359H250.08V434.17ZM188.08 427.17H243.08V352H329C335.1 352 340.95 349.577 345.264 345.263C349.577 340.95 352 335.1 352 329V245.67H297V297H211.08C204.98 297 199.13 299.423 194.817 303.736C190.503 308.05 188.08 313.9 188.08 320V427.17Z" fill="#D86E28"></path><path d="M263.75 293.52H256.75V355.52H263.75V293.52Z" fill="#D86E28"></path><path d="M280.88 321.17C284.608 321.17 287.63 318.148 287.63 314.42C287.63 310.692 284.608 307.67 280.88 307.67C277.152 307.67 274.13 310.692 274.13 314.42C274.13 318.148 277.152 321.17 280.88 321.17Z" fill="#D86E28"></path><path d="M280.88 343.17C284.608 343.17 287.63 340.148 287.63 336.42C287.63 332.692 284.608 329.67 280.88 329.67C277.152 329.67 274.13 332.692 274.13 336.42C274.13 340.148 277.152 343.17 280.88 343.17Z" fill="#D86E28"></path></svg> 