<?xml version="1.0" encoding="UTF-8"?> <svg xmlns="http://www.w3.org/2000/svg" width="500" height="500" viewBox="0 0 500 500" fill="none"><path d="M71.4399 155.58L257.38 246.45L246.23 269.26L179.41 236.61V405.66H438.11V273.21H463.5V431.06H154V224.2L60.2899 178.39L71.4399 155.58V155.58ZM68.2199 146.22L65.1499 152.51L53.9999 175.32L50.9299 181.61L57.2199 184.68L147 228.57V438.06H470.5V266.21H431.11V398.66H186.41V247.82L243.16 275.55L249.44 278.62L252.52 272.33L263.67 249.52L266.74 243.23L260.45 240.16L74.5099 149.29L68.2199 146.22V146.22Z" fill="#D86E28"></path><path d="M355.86 333C351.855 331.62 347.664 330.858 343.43 330.74C330.88 330.74 315.56 339.64 309.21 339.64C302.86 339.64 292.92 330.74 280.5 330.74C276.758 330.825 273.05 331.472 269.5 332.66L290.66 254.74C291.924 250.085 291.539 245.136 289.571 240.733C287.603 236.329 284.172 232.742 279.86 230.58L77.46 129L84.16 116.06L313 232.07C316.864 234.031 320.303 236.735 323.119 240.028C325.935 243.321 328.073 247.138 329.41 251.26L355.86 333Z" fill="#D86E28"></path><path d="M400.85 330.72C392.56 330.72 388.98 339.62 379.04 339.62C372.37 339.62 364.26 335.62 355.86 332.98C351.855 331.6 347.664 330.838 343.43 330.72C330.88 330.72 315.56 339.62 309.21 339.62C302.86 339.62 292.92 330.72 280.5 330.72C276.758 330.805 273.05 331.452 269.5 332.64C261.07 335.25 253.07 339.64 246.01 339.64C235.94 339.64 226.01 330.74 218.96 330.74C211.91 330.74 200.19 339.64 200.19 339.64V383.58H418.23V339.62C418.23 339.62 409.13 330.72 400.85 330.72ZM400.85 349.56C397.77 349.56 395.36 351.25 392.58 353.21C389.08 355.67 385.11 358.47 379.04 358.47C373.87 358.47 368.27 356.41 362.33 354.24C360.8 353.68 359.27 353.11 357.72 352.58C352.93 350.92 348.09 349.58 343.43 349.58C338.77 349.58 333.53 350.96 328.59 352.58C326.25 353.36 323.99 354.19 321.88 354.96C316.55 356.96 312.34 358.47 309.21 358.47C306.08 358.47 302.4 356.79 298.3 354.85C296.71 354.1 295.05 353.31 293.3 352.58C289.268 350.729 284.905 349.709 280.47 349.58C275.88 349.58 271.24 350.95 266.67 352.58C265.25 353.1 263.83 353.64 262.42 354.18C256.68 356.38 251.26 358.47 245.97 358.47C239.85 358.47 234.02 355.64 228.87 353.14C225.08 351.3 221.49 349.56 218.87 349.56C216.52 349.56 212.74 351.01 208.24 353.64V347.34C213.73 344.14 215.47 344.04 218.88 344.04C222.72 344.04 226.88 346.04 231.24 348.18C236.08 350.52 241.08 352.95 245.93 352.95C250.19 352.95 255.15 351.04 260.4 349.03C262.08 348.39 263.78 347.74 265.49 347.13C270.275 345.227 275.353 344.168 280.5 344C288.37 344 295.18 347.23 300.66 349.82C302.743 350.877 304.899 351.786 307.11 352.54C307.79 352.759 308.496 352.883 309.21 352.91C310.031 352.877 310.846 352.753 311.64 352.54C313.89 351.98 316.87 350.88 319.98 349.74C326.98 347.18 335.6 344 343.43 344C349.3 344 355.04 345.72 360.63 347.7L364.24 349.01C369.7 351.01 374.85 352.91 379.04 352.91C383.23 352.91 386.3 350.84 389.41 348.65C392.52 346.46 396 344 400.85 344C404.85 344 406.21 343.76 411.07 347V353.48C407.23 350.94 403.68 349.56 400.85 349.56Z" fill="#D86E28"></path></svg> 