<?xml version="1.0" encoding="UTF-8"?> <svg xmlns="http://www.w3.org/2000/svg" width="500" height="500" viewBox="0 0 500 500" fill="none"><path d="M343.62 156.44H155.05C147.075 156.44 140.61 162.903 140.61 170.875C140.61 178.847 147.075 185.31 155.05 185.31H343.62C351.595 185.31 358.06 178.847 358.06 170.875C358.06 162.903 351.595 156.44 343.62 156.44Z" fill="#D86E28"></path><path d="M291.34 180.88C288.688 180.88 286.144 179.826 284.269 177.951C282.393 176.076 281.34 173.532 281.34 170.88V137.75H217.34V170.88C217.34 173.532 216.286 176.076 214.411 177.951C212.536 179.826 209.992 180.88 207.34 180.88C204.688 180.88 202.144 179.826 200.269 177.951C198.393 176.076 197.34 173.532 197.34 170.88V127.75C197.34 125.098 198.393 122.554 200.269 120.679C202.144 118.804 204.688 117.75 207.34 117.75H291.34C293.992 117.75 296.536 118.804 298.411 120.679C300.286 122.554 301.34 125.098 301.34 127.75V170.88C301.34 173.532 300.286 176.076 298.411 177.951C296.536 179.826 293.992 180.88 291.34 180.88V180.88Z" fill="#D86E28"></path><path d="M150.4 198.75L169.93 399C170.321 403.595 172.422 407.877 175.818 410.997C179.214 414.117 183.658 415.849 188.27 415.85H310.41C315.022 415.849 319.465 414.117 322.862 410.997C326.258 407.877 328.359 403.595 328.75 399L348.28 198.72L150.4 198.75ZM205.85 387.87C203.573 388.084 201.305 387.387 199.542 385.93C197.78 384.473 196.668 382.376 196.45 380.1L182.85 236C182.696 234.85 182.776 233.682 183.084 232.563C183.392 231.445 183.923 230.401 184.645 229.493C185.366 228.585 186.264 227.832 187.283 227.279C188.303 226.726 189.423 226.384 190.578 226.274C191.733 226.164 192.898 226.289 194.003 226.64C195.108 226.991 196.132 227.562 197.011 228.318C197.891 229.073 198.609 229.999 199.123 231.039C199.636 232.079 199.935 233.212 200 234.37L213.61 378.48C213.824 380.754 213.128 383.02 211.673 384.78C210.218 386.541 208.123 387.652 205.85 387.87ZM258 379.69C257.924 381.927 256.982 384.046 255.372 385.602C253.763 387.157 251.613 388.026 249.375 388.026C247.137 388.026 244.987 387.157 243.377 385.602C241.768 384.046 240.826 381.927 240.75 379.69V234.94C240.71 233.783 240.904 232.629 241.32 231.548C241.736 230.467 242.365 229.481 243.17 228.649C243.974 227.816 244.939 227.154 246.005 226.702C247.071 226.249 248.217 226.016 249.375 226.016C250.533 226.016 251.679 226.249 252.745 226.702C253.811 227.154 254.775 227.816 255.58 228.649C256.385 229.481 257.014 230.467 257.43 231.548C257.845 232.629 258.039 233.783 258 234.94V379.69ZM315.83 236L302.23 380.1C301.971 382.343 300.844 384.394 299.089 385.815C297.335 387.237 295.094 387.914 292.847 387.702C290.599 387.49 288.524 386.406 287.067 384.682C285.609 382.958 284.885 380.731 285.05 378.48L298.66 234.37C298.767 233.243 299.095 232.147 299.625 231.147C300.156 230.146 300.878 229.26 301.751 228.538C302.624 227.817 303.63 227.274 304.713 226.942C305.795 226.609 306.933 226.493 308.06 226.6C309.187 226.707 310.283 227.035 311.283 227.565C312.284 228.096 313.17 228.818 313.892 229.691C314.613 230.564 315.156 231.57 315.488 232.653C315.821 233.735 315.937 234.873 315.83 236V236Z" fill="#D86E28"></path></svg> 