<?xml version="1.0" encoding="UTF-8"?> <svg xmlns="http://www.w3.org/2000/svg" width="500" height="500" viewBox="0 0 500 500" fill="none"><path d="M264.94 258.42H244.94V193.57H392.88V107.04H412.88V213.57H264.94V258.42Z" fill="#D86E28"></path><path d="M116.63 106.88H87.13V126.88H116.63V106.88Z" fill="#D86E28"></path><path d="M285.92 430.42H223.83C221.178 430.42 218.634 429.366 216.759 427.491C214.884 425.616 213.83 423.072 213.83 420.42V263.37C213.822 262.055 214.075 260.751 214.575 259.534C215.075 258.317 215.811 257.211 216.741 256.281C217.671 255.351 218.777 254.615 219.994 254.115C221.211 253.615 222.515 253.362 223.83 253.37H285.92C288.572 253.37 291.116 254.424 292.991 256.299C294.866 258.174 295.92 260.718 295.92 263.37V420.46C295.909 423.105 294.851 425.639 292.977 427.505C291.103 429.372 288.565 430.42 285.92 430.42V430.42ZM233.83 420.42H275.92C278.572 420.42 281.116 419.366 282.991 417.491C284.866 415.616 285.92 413.072 285.92 410.42V273.37C285.907 270.727 284.847 268.196 282.973 266.331C281.1 264.467 278.564 263.42 275.92 263.42H233.83C232.519 263.412 231.219 263.664 230.005 264.16C228.792 264.657 227.689 265.389 226.759 266.314C225.829 267.239 225.092 268.338 224.589 269.549C224.087 270.76 223.829 272.059 223.83 273.37V410.46C223.841 413.105 224.899 415.639 226.773 417.505C228.647 419.372 231.185 420.42 233.83 420.42V420.42Z" fill="#D86E28"></path><path d="M270.63 281.34H260.63V402.17H270.63V281.34Z" fill="#D86E28"></path><path d="M363.73 78.6299H140.52C136.707 78.6299 133.05 80.1432 130.352 82.8375C127.654 85.5319 126.135 89.1869 126.13 92.9999V140.72C126.13 142.61 126.502 144.481 127.225 146.227C127.949 147.973 129.008 149.559 130.345 150.895C131.681 152.231 133.267 153.291 135.013 154.015C136.759 154.738 138.63 155.11 140.52 155.11H363.73C367.547 155.11 371.209 153.594 373.909 150.896C376.609 148.197 378.127 144.537 378.13 140.72V92.9999C378.122 89.186 376.601 85.531 373.902 82.8369C371.202 80.1429 367.544 78.6299 363.73 78.6299V78.6299ZM360.63 103.63H145.8V93.6299H360.63V103.63Z" fill="#D86E28"></path></svg> 