<?xml version="1.0" encoding="UTF-8"?> <svg xmlns="http://www.w3.org/2000/svg" width="500" height="500" viewBox="0 0 500 500" fill="none"><path d="M409 335H325.42V310.65H86.8301V227.12H349C364.908 227.136 380.16 233.463 391.409 244.711C402.658 255.96 408.984 271.212 409 287.12V335Z" fill="#D86E28"></path><path d="M415.98 345.52H319.17C315.845 345.52 313.15 348.215 313.15 351.54V389.62C313.15 392.945 315.845 395.64 319.17 395.64H415.98C419.305 395.64 422 392.945 422 389.62V351.54C422 348.215 419.305 345.52 415.98 345.52Z" fill="#D86E28"></path><path d="M218.77 336.12C258.413 336.12 290.55 303.983 290.55 264.34C290.55 224.697 258.413 192.56 218.77 192.56C179.127 192.56 146.99 224.697 146.99 264.34C146.99 303.983 179.127 336.12 218.77 336.12Z" fill="#D86E28"></path><path d="M278.19 174.53H159.35C154.633 174.525 150.112 172.649 146.776 169.314C143.441 165.978 141.565 161.457 141.56 156.74V154.74C141.579 150.032 143.46 145.523 146.794 142.199C150.128 138.874 154.642 137.005 159.35 137H278.19C282.908 137 287.434 138.872 290.773 142.206C294.112 145.539 295.992 150.062 296 154.78V156.78C295.984 161.493 294.101 166.008 290.762 169.335C287.424 172.662 282.903 174.53 278.19 174.53V174.53ZM159.35 144C156.489 144.003 153.746 145.14 151.723 147.163C149.7 149.186 148.563 151.929 148.56 154.79V156.79C148.563 159.651 149.7 162.394 151.723 164.417C153.746 166.44 156.489 167.577 159.35 167.58H278.19C279.613 167.581 281.021 167.302 282.335 166.757C283.649 166.212 284.843 165.413 285.847 164.406C286.852 163.399 287.647 162.203 288.189 160.888C288.73 159.572 289.005 158.162 289 156.74V154.74C288.984 151.884 287.838 149.151 285.812 147.138C283.786 145.126 281.046 143.997 278.19 144H159.35Z" fill="#D86E28"></path><path d="M234.47 182.18H203.07V227.53H234.47V182.18Z" fill="#D86E28"></path><path d="M216.74 106.1H220.81C224.436 106.1 227.913 107.54 230.476 110.104C233.04 112.668 234.48 116.145 234.48 119.77V128.77H203.08V119.77C203.08 116.146 204.519 112.671 207.08 110.107C209.642 107.544 213.116 106.103 216.74 106.1V106.1Z" fill="#D86E28"></path></svg> 