<?xml version="1.0" encoding="UTF-8"?> <svg xmlns="http://www.w3.org/2000/svg" width="500" height="500" viewBox="0 0 500 500" fill="none"><path d="M380.301 189.696L332.89 142.284L316.351 158.824L363.762 206.235L380.301 189.696Z" fill="#D86E28"></path><path d="M390.811 124.132L398.448 131.769C403.721 137.043 406.684 144.195 406.684 151.653C406.684 159.111 403.721 166.263 398.448 171.537L385.253 184.731L337.842 137.32L351.036 124.125C356.31 118.852 363.462 115.889 370.92 115.889C378.378 115.889 385.53 118.852 390.804 124.125L390.811 124.132Z" fill="#D86E28"></path><path d="M116.8 390C116.8 390 129.44 392.95 131.97 405.17L112.9 409.7L116.8 390Z" fill="#D86E28"></path><path d="M129.33 362.26L160.33 393.26L117.19 406.58C117 406.646 116.793 406.646 116.603 406.581C116.412 406.516 116.249 406.389 116.14 406.22C116.052 406.107 115.994 405.973 115.973 405.831C115.952 405.689 115.968 405.544 116.02 405.41L129.34 362.27L129.33 362.26ZM126.08 349.11L109.33 403.35C108.899 404.729 108.854 406.2 109.2 407.603C109.545 409.006 110.268 410.288 111.29 411.31C112.312 412.332 113.594 413.055 114.997 413.4C116.4 413.746 117.871 413.701 119.25 413.27L173.49 396.52L126.07 349.1L126.08 349.11Z" fill="#D86E28"></path><path d="M310.233 164.933L274.609 200.557L322.02 247.969L357.644 212.345L310.233 164.933Z" fill="#D86E28"></path><path d="M191.386 283.789L133.87 341.305L181.281 388.717L238.797 331.201L191.386 283.789Z" fill="#D86E28"></path><path d="M150.78 103.48L419.1 371.8L362.62 428.27L94.3099 160L150.78 103.52V103.48ZM150.78 93.6201L84.4099 160L362.62 438.17L429 371.8L150.78 93.5801V93.6201Z" fill="#D86E28"></path><path d="M138.885 148.081L108.538 178.417L113.487 183.368L143.834 153.031L138.885 148.081Z" fill="#D86E28"></path><path d="M137.41 173.149L120.338 190.215L125.287 195.166L142.359 178.099L137.41 173.149Z" fill="#D86E28"></path><path d="M149.153 184.881L132.081 201.948L137.03 206.899L154.102 189.832L149.153 184.881Z" fill="#D86E28"></path><path d="M173.411 182.602L143.064 212.939L148.013 217.89L178.36 187.553L173.411 182.602Z" fill="#D86E28"></path><path d="M171.943 207.677L154.871 224.744L159.819 229.694L176.892 212.628L171.943 207.677Z" fill="#D86E28"></path><path d="M183.662 219.42L166.589 236.487L171.538 241.437L188.611 224.371L183.662 219.42Z" fill="#D86E28"></path><path d="M207.937 217.138L177.589 247.475L182.538 252.425L212.885 222.089L207.937 217.138Z" fill="#D86E28"></path><path d="M206.457 242.168L189.387 259.238L194.337 264.188L211.406 247.118L206.457 242.168Z" fill="#D86E28"></path><path d="M218.199 253.918L201.13 270.988L206.08 275.938L223.149 258.868L218.199 253.918Z" fill="#D86E28"></path><path d="M242.464 251.636L212.122 281.978L217.072 286.927L247.414 256.585L242.464 251.636Z" fill="#D86E28"></path><path d="M240.989 276.709L223.92 293.778L228.869 298.728L245.939 281.658L240.989 276.709Z" fill="#D86E28"></path><path d="M252.725 288.446L235.656 305.515L240.605 310.465L257.675 293.395L252.725 288.446Z" fill="#D86E28"></path><path d="M276.98 286.162L246.638 316.504L251.588 321.454L281.93 291.112L276.98 286.162Z" fill="#D86E28"></path><path d="M275.515 311.236L258.445 328.305L263.395 333.255L280.465 316.185L275.515 311.236Z" fill="#D86E28"></path><path d="M287.251 322.969L270.181 340.038L275.131 344.988L292.2 327.918L287.251 322.969Z" fill="#D86E28"></path><path d="M311.506 320.685L281.164 351.027L286.113 355.977L316.455 325.635L311.506 320.685Z" fill="#D86E28"></path><path d="M310.041 345.759L292.971 362.828L297.921 367.778L314.99 350.708L310.041 345.759Z" fill="#D86E28"></path><path d="M321.777 357.506L304.707 374.575L309.657 379.525L326.726 362.455L321.777 357.506Z" fill="#D86E28"></path><path d="M346.031 355.222L315.689 385.564L320.639 390.514L350.981 360.172L346.031 355.222Z" fill="#D86E28"></path><path d="M344.566 380.296L327.497 397.365L332.447 402.315L349.516 385.245L344.566 380.296Z" fill="#D86E28"></path><path d="M356.302 392.019L339.233 409.088L344.182 414.038L361.252 396.968L356.302 392.019Z" fill="#D86E28"></path></svg> 