<?xml version="1.0" encoding="UTF-8"?> <svg xmlns="http://www.w3.org/2000/svg" width="500" height="500" viewBox="0 0 500 500" fill="none"><path d="M453.45 238.37L258.08 91.4399L62.72 238.37L50.7 222.38L258.08 66.4199L465.47 222.38L453.45 238.37Z" fill="#D86E28"></path><path d="M215.58 346.67H111.17V362.92H215.58V346.67Z" fill="#D86E28"></path><path d="M405 346.67H300.58V362.92H405V346.67Z" fill="#D86E28"></path><path d="M405 372.92H111.17V389.17H405V372.92Z" fill="#D86E28"></path><path d="M405 399.17H111.17V415.42H405V399.17Z" fill="#D86E28"></path><path d="M215.58 320.42H111.17V336.67H215.58V320.42Z" fill="#D86E28"></path><path d="M405 320.42H300.58V336.67H405V320.42Z" fill="#D86E28"></path><path d="M273.36 126.67L258.08 115.18L242.81 126.67H273.36Z" fill="#D86E28"></path><path d="M111.17 225.67V231.67H405V225.67L391.37 215.42H124.8L111.17 225.67Z" fill="#D86E28"></path><path d="M194.61 162.92L173 179.17H343.17L321.56 162.92H194.61Z" fill="#D86E28"></path><path d="M229.51 136.67L207.9 152.92H308.26L286.65 136.67H229.51Z" fill="#D86E28"></path><path d="M159.7 189.17L138.09 205.42H378.07L356.46 189.17H159.7Z" fill="#D86E28"></path><path d="M405 425.42H111.17V438.17H405V425.42Z" fill="#D86E28"></path><path d="M405 241.67H111.17V257.92H405V241.67Z" fill="#D86E28"></path><path d="M215.58 294.17H111.17V310.42H215.58V294.17Z" fill="#D86E28"></path><path d="M405 294.17H300.58V310.42H405V294.17Z" fill="#D86E28"></path><path d="M215.58 267.92H111.17V284.17H215.58V267.92Z" fill="#D86E28"></path><path d="M405 267.92H300.58V284.17H405V267.92Z" fill="#D86E28"></path></svg> 