<?xml version="1.0" encoding="UTF-8"?> <svg xmlns="http://www.w3.org/2000/svg" id="Layer_1" data-name="Layer 1" viewBox="0 0 300 300"><defs><style>.cls-1{fill:none;stroke:#fff;stroke-miterlimit:10;stroke-width:10px;}</style></defs><rect class="cls-1" x="18.25" y="63.11" width="263.5" height="153.92" rx="3.03"></rect><path class="cls-1" d="M38.81,217H75a0,0,0,0,1,0,0v17.76a2.1,2.1,0,0,1-2.1,2.1h-32a2.1,2.1,0,0,1-2.1-2.1V217A0,0,0,0,1,38.81,217Z"></path><path class="cls-1" d="M221.83,217h36.23a0,0,0,0,1,0,0v17.76a2.1,2.1,0,0,1-2.1,2.1h-32a2.1,2.1,0,0,1-2.1-2.1V217A0,0,0,0,1,221.83,217Z"></path><line class="cls-1" x1="202.47" y1="63.11" x2="202.47" y2="217.03"></line><line class="cls-1" x1="202.47" y1="183.8" x2="281.75" y2="183.8"></line><circle class="cls-1" cx="242.11" cy="149.45" r="14.99"></circle><circle class="cls-1" cx="242.11" cy="100.68" r="14.99"></circle><rect class="cls-1" x="45.69" y="90.72" width="129.3" height="94.32" rx="6.75"></rect></svg> 