<?xml version="1.0" encoding="UTF-8"?> <svg xmlns="http://www.w3.org/2000/svg" id="Layer_1" data-name="Layer 1" viewBox="0 0 300 300"><defs><style>.cls-1{fill:none;stroke:#fff;stroke-miterlimit:10;stroke-width:10px;}</style></defs><polygon class="cls-1" points="117.19 173.54 117.19 131.24 80.55 110.09 43.92 131.24 43.92 173.54 80.55 194.69 117.19 173.54"></polygon><polygon class="cls-1" points="190.46 173.54 190.46 131.24 153.82 110.09 117.19 131.24 117.19 173.54 153.82 194.69 190.46 173.54"></polygon><polygon class="cls-1" points="263.73 173.54 263.73 131.24 227.09 110.09 190.46 131.24 190.46 173.54 227.09 194.69 263.73 173.54"></polygon><polygon class="cls-1" points="153.82 236.95 153.82 194.65 117.19 173.5 80.55 194.65 80.55 236.95 117.19 258.1 153.82 236.95"></polygon><polygon class="cls-1" points="227.09 236.95 227.09 194.65 190.46 173.5 153.82 194.65 153.82 236.95 190.46 258.1 227.09 236.95"></polygon><polygon class="cls-1" points="153.82 110.08 153.82 67.78 117.19 46.63 80.55 67.78 80.55 110.08 117.19 131.23 153.82 110.08"></polygon><polygon class="cls-1" points="227.09 110.08 227.09 67.78 190.46 46.63 153.82 67.78 153.82 110.08 190.46 131.23 227.09 110.08"></polygon></svg> 