<?xml version="1.0" encoding="UTF-8"?> <svg xmlns="http://www.w3.org/2000/svg" id="Layer_1" viewBox="0 0 500 500"><defs><style>.cls-1{fill:#d86e28;}</style></defs><g><path class="cls-1" d="M166.85,270.53h-30V107.35c0-34.3,27.9-62.2,62.2-62.2h26.25c34.3,0,62.2,27.9,62.2,62.2v39.92h-30v-39.92c0-17.76-14.45-32.2-32.2-32.2h-26.25c-17.76,0-32.2,14.45-32.2,32.2v163.17Z"></path><rect class="cls-1" x="244.5" y="154.72" width="56" height="24.75"></rect><g><path class="cls-1" d="M167.72,385.35c-18.4,0-33.38-14.97-33.38-33.38s14.97-33.38,33.38-33.38h27.72v-19.38c0-7.66-6.21-13.88-13.88-13.88h-59.44c-7.66,0-13.88,6.21-13.88,13.88v100.32h87.19v-14.19h-27.72Z"></path><path class="cls-1" d="M264.12,375.35h-96.4c-12.89,0-23.38-10.49-23.38-23.38s10.49-23.38,23.38-23.38h96.4c12.89,0,23.38,10.49,23.38,23.38s-10.49,23.38-23.38,23.38Zm-96.4-31.76c-4.62,0-8.38,3.76-8.38,8.38s3.76,8.38,8.38,8.38h96.4c4.62,0,8.38-3.76,8.38-8.38s-3.76-8.38-8.38-8.38h-96.4Z"></path></g><rect class="cls-1" x="58.75" y="410.6" width="382.5" height="29.25"></rect></g><path class="cls-1" d="M289.01,231.79l-13.81-26.57c-1.14-2.19-4.27-2.19-5.41,0l-13.81,26.57c-3.74,7.2-2.39,16,3.35,21.74h0c7.27,7.27,19.05,7.27,26.32,0h0c5.74-5.74,7.1-14.54,3.35-21.74Z"></path></svg> 