<?xml version="1.0" encoding="UTF-8"?> <svg xmlns="http://www.w3.org/2000/svg" id="Layer_1" viewBox="0 0 500 500"><defs><style>.cls-1{fill:#d86e28;}</style></defs><g><rect class="cls-1" x="103.99" y="417.08" width="143.06" height="23.37" rx="3.55" ry="3.55"></rect><g><path class="cls-1" d="M284.26,188.43l5.45-56.3c.16-1.7-1.5-3.15-3.62-3.15H64.95c-2.12,0-3.78,1.45-3.62,3.15l5.45,56.3h217.48Z"></path><path class="cls-1" d="M70.4,225.81l17.42,180.03c.15,1.52,1.72,2.7,3.62,2.7h168.16c1.89,0,3.47-1.17,3.62-2.7l17.42-180.03H70.4Z"></path></g><rect class="cls-1" x="45.65" y="198.81" width="259.74" height="16.61" rx="3.2" ry="3.2"></rect><rect class="cls-1" x="122.53" y="66" width="105.97" height="40.66"></rect><rect class="cls-1" x="145.32" y="112.76" width="60.39" height="10.12"></rect></g><polygon class="cls-1" points="454.35 387.25 399.6 387.25 339.85 327.5 284.48 327.5 287.35 292.5 354.35 292.5 414.1 352.25 454.35 352.25 454.35 387.25"></polygon></svg> 