<?xml version="1.0" encoding="UTF-8"?> <svg xmlns="http://www.w3.org/2000/svg" id="Layer_1" data-name="Layer 1" viewBox="0 0 500 500"><defs><style>.cls-1{fill:#d86e28;}</style></defs><path class="cls-1" d="M329.34,206.08h50.6v-50h-50.6a54,54,0,0,0-53.9,53.9v25.15H264.78a3.33,3.33,0,0,0-3.34,3.34v35.32a3.34,3.34,0,0,0,3.34,3.34h10.66V291a45.88,45.88,0,1,1-91.75,0V182H194a3.34,3.34,0,0,0,3.34-3.35V143.29A3.33,3.33,0,0,0,194,140H183.69V71.15h-50V140H123.4a3.34,3.34,0,0,0-3.34,3.34V178.6A3.35,3.35,0,0,0,123.4,182h10.29V291a96,96,0,0,0,86.44,95.41l13.62-18.16-9-21.75L250,366.75l-4.23,18.75A96,96,0,0,0,325.44,291V277.13h9.91a3.35,3.35,0,0,0,3.34-3.34V238.47a3.34,3.34,0,0,0-3.34-3.34h-9.91V210A3.91,3.91,0,0,1,329.34,206.08Z"></path><path class="cls-1" d="M362.63,433.51c0-24.76-145.06-20.17-176.35-20.17-37.12,0-67.22,6-67.22,13.42,0,4.36,10.42,8.23,26.56,10.68-7.61,2.82-11.93,6.05-11.93,9.49,0,11.09,45,20.07,100.59,20.07s100.6-9,100.6-20.07a4.73,4.73,0,0,0-.75-2.46C351.36,442.05,362.63,438,362.63,433.51Z"></path></svg> 