<?xml version="1.0" encoding="UTF-8"?> <svg xmlns="http://www.w3.org/2000/svg" width="500" height="500" viewBox="0 0 500 500" fill="none"><path d="M75.25 294.59H430.6V370.84C430.6 377.201 429.347 383.5 426.913 389.377C424.478 395.254 420.91 400.594 416.412 405.092C411.914 409.59 406.574 413.158 400.697 415.593C394.82 418.027 388.521 419.28 382.16 419.28H123.69C117.329 419.28 111.03 418.027 105.153 415.593C99.2758 413.158 93.9358 409.59 89.4377 405.092C84.9397 400.594 81.3716 395.254 78.9373 389.377C76.5029 383.5 75.25 377.201 75.25 370.84V294.59Z" fill="#D86E28"></path><path d="M436.31 246.27H69.54C60.9464 246.27 53.98 253.236 53.98 261.83C53.98 270.424 60.9464 277.39 69.54 277.39H436.31C444.904 277.39 451.87 270.424 451.87 261.83C451.87 253.236 444.904 246.27 436.31 246.27Z" fill="#D86E28"></path><path d="M150.93 396.02H123.93V441.02H150.93V396.02Z" fill="#D86E28"></path><path d="M381.93 396.02H354.93V441.02H381.93V396.02Z" fill="#D86E28"></path><path d="M180.217 71.8648L128.068 124.014L138.936 134.882L191.085 82.733L180.217 71.8648Z" fill="#D86E28"></path><path d="M134.872 80.0835L136.286 78.6693C141.209 73.7464 147.886 70.9808 154.848 70.9808C161.81 70.9808 168.487 73.7464 173.409 78.6693V78.6693L134.872 117.207C129.949 112.284 127.184 105.607 127.184 98.645C127.184 91.6831 129.949 85.0063 134.872 80.0835V80.0835Z" fill="#D86E28"></path><path d="M98.3999 261.84H78.3999V111.27C78.4007 102.656 80.9885 94.2413 85.8278 87.1156C90.6671 79.9899 97.535 74.4818 105.541 71.3051C113.548 68.1284 122.324 67.4294 130.732 69.2989C139.141 71.1683 146.794 75.5199 152.7 81.7899L138.14 95.5099C136 93.2136 133.408 91.3849 130.527 90.1389C127.646 88.8929 124.539 88.2566 121.4 88.2699C115.3 88.2699 109.45 90.6931 105.136 95.0064C100.823 99.3198 98.3999 105.17 98.3999 111.27V261.84Z" fill="#D86E28"></path><path d="M159.442 133.068L152.371 140.139L158.381 146.149L165.452 139.078L159.442 133.068Z" fill="#D86E28"></path><path d="M222.22 210L211.58 199.36L218.65 192.29L229.29 202.93L222.22 210ZM200.94 188.72L190.3 178.05L197.37 170.98L208 181.62L200.94 188.72ZM179.66 167.44L169 156.77L176.07 149.7L186.71 160.34L179.66 167.44Z" fill="#D86E28"></path><path d="M239.932 213.538L232.861 220.609L238.871 226.62L245.942 219.548L239.932 213.538Z" fill="#D86E28"></path><path d="M179.722 112.788L172.651 119.859L178.661 125.869L185.732 118.798L179.722 112.788Z" fill="#D86E28"></path><path d="M242.5 189.69L231.86 179.05L238.93 171.98L249.57 182.62L242.5 189.69ZM221.22 168.41L210.58 157.77L217.65 150.7L228.29 161.34L221.22 168.41ZM199.94 147.13L189.3 136.49L196.37 129.42L207 140.06L199.94 147.13Z" fill="#D86E28"></path><path d="M260.212 193.258L253.141 200.329L259.151 206.339L266.222 199.268L260.212 193.258Z" fill="#D86E28"></path><path d="M200.002 92.5075L192.931 99.5786L198.941 105.589L206.012 98.518L200.002 92.5075Z" fill="#D86E28"></path><path d="M262.78 169.41L252.14 158.77L259.21 151.7L269.85 162.34L262.78 169.41ZM241.5 148.13L230.86 137.49L237.93 130.42L248.57 141.06L241.5 148.13ZM220.22 126.85L209.58 116.21L216.65 109.14L227.29 119.78L220.22 126.85Z" fill="#D86E28"></path><path d="M280.492 172.978L273.421 180.049L279.431 186.059L286.502 178.988L280.492 172.978Z" fill="#D86E28"></path></svg> 