<?xml version="1.0" encoding="UTF-8"?> <svg xmlns="http://www.w3.org/2000/svg" id="Layer_1" data-name="Layer 1" viewBox="0 0 500 500"><defs><style>.cls-1{fill:#d86e28;}</style></defs><path class="cls-1" d="M271,243.19H197.18a4.11,4.11,0,0,0-4.11,4.11v33.5a4.12,4.12,0,0,0,4.11,4.12h11.89V320.3a37.63,37.63,0,1,1-75.25,0V98.87h-50V320.3a87.63,87.63,0,1,0,175.25,0V284.92H271a4.13,4.13,0,0,0,4.12-4.12V247.3A4.12,4.12,0,0,0,271,243.19Z"></path><path class="cls-1" d="M321.68,125.9a57.38,57.38,0,0,0-48.83-33.83l20.51,45.82a6.51,6.51,0,0,1-3.28,8.59l-36.74,16.44a6.5,6.5,0,0,1-8.59-3.28l-20.5-45.82a57.34,57.34,0,0,0,41.49,92.74l99.51,185.61a26.63,26.63,0,1,0,48.61-21.75L314.37,184.85A57.38,57.38,0,0,0,321.68,125.9Z"></path></svg> 