<?xml version="1.0" encoding="UTF-8"?> <svg xmlns="http://www.w3.org/2000/svg" id="Layer_1" data-name="Layer 1" viewBox="0 0 500 500"><defs><style>.cls-1{fill:#d86e28;}</style></defs><path class="cls-1" d="M250,166.07c-57.2,0-103.57,58.82-103.57,131.39S192.8,428.85,250,428.85,353.57,370,353.57,297.46,307.2,166.07,250,166.07ZM295.75,368.7c-12.79,16.22-29,25.15-45.75,25.15s-33-8.93-45.75-25.15c-14.5-18.4-22.82-44.37-22.82-71.24s8.32-52.84,22.82-71.24C217,210,233.28,201.07,250,201.07s33,8.93,45.75,25.15c14.5,18.4,22.82,44.36,22.82,71.24S310.25,350.3,295.75,368.7Z"></path><rect class="cls-1" x="112.88" y="71.15" width="269.8" height="112.18" rx="11.37"></rect><path class="cls-1" d="M255.78,358c-12.66,0-24.85-6.44-33.73-17.89-14.77-19.08-14.77-50.12,0-69.2,6.19-8,14.54-12.39,23.5-12.39s17.31,4.4,23.5,12.39c10.09,13,10.09,33.45,0,46.49C264.74,323,258.89,326,252.59,326s-12.16-3.07-16.46-8.63c-6.94-9-6.94-23,0-32a14.6,14.6,0,0,1,23.91,0,19.24,19.24,0,0,1,0,22.66,11.54,11.54,0,0,1-9.08,4.68h0a11.37,11.37,0,0,1-8.38-3.86,13.22,13.22,0,0,0,1.45,2.36c2.37,3.06,5.41,4.75,8.56,4.75s6.18-1.69,8.55-4.75c7.19-9.29,7.19-25,0-34.25-4.25-5.49-9.79-8.51-15.59-8.51s-11.34,3-15.59,8.51c-12.16,15.7-12.16,41.25,0,56.95,7.3,9.43,17.25,14.53,27.31,14,9.61-.53,18.13-6.06,24-15.58C292.15,314.6,294,292,286,273.49c-6.94-16.05-20.06-26.83-37-30.34a5,5,0,1,1,2-9.8c20.18,4.2,35.85,17.05,44.11,36.18,9.28,21.48,7.22,47.56-5.37,68.08-7.5,12.23-19.14,19.64-31.95,20.34C257.13,358,256.45,358,255.78,358Z"></path></svg> 