<?xml version="1.0" encoding="UTF-8"?> <svg xmlns="http://www.w3.org/2000/svg" id="Layer_1" viewBox="0 0 500 500"><defs><style>.cls-1{fill:#d86e28;}</style></defs><path class="cls-1" d="M75.91,268.56H424.09v73.4c0,22.93-18.62,41.55-41.55,41.55H117.45c-22.93,0-41.55-18.62-41.55-41.55v-73.4h0Z"></path><rect class="cls-1" x="60.62" y="231.18" width="378.75" height="26.69" rx="13.35" ry="13.35"></rect><rect class="cls-1" x="232.25" y="431.5" width="35.5" height="21"></rect><rect class="cls-1" x="302.5" y="109.75" width="31" height="12.25"></rect><g><rect class="cls-1" x="232" y="394.19" width="35.5" height="26.62"></rect><rect class="cls-1" x="216.38" y="394.19" width="9" height="26.62"></rect><rect class="cls-1" x="274.12" y="394.19" width="9" height="26.62"></rect></g><path class="cls-1" d="M260,216.56h-20V91.5c0-24.26,19.74-44,44-44s44,19.74,44,44v12h-20v-12c0-13.23-10.77-24-24-24s-24,10.77-24,24v125.06Z"></path></svg> 