<?xml version="1.0" encoding="UTF-8"?> <svg xmlns="http://www.w3.org/2000/svg" id="Layer_1" data-name="Layer 1" viewBox="0 0 500 500"><defs><style>.cls-1{fill:#d86e28;}</style></defs><path class="cls-1" d="M346.05,238.84h56.33V183.19H346.05a60.05,60.05,0,0,0-60,60v28H274.21a3.72,3.72,0,0,0-3.72,3.72V314.2a3.72,3.72,0,0,0,3.72,3.72h11.86v15.43a51.06,51.06,0,1,1-102.11,0V212H195.4a3.73,3.73,0,0,0,3.72-3.73V169a3.72,3.72,0,0,0-3.72-3.72H184V88.67H128.31v76.57H116.86a3.71,3.71,0,0,0-3.71,3.72v39.3a3.72,3.72,0,0,0,3.71,3.73h11.45V333.35a106.85,106.85,0,0,0,96.21,106.19s7.89.46,14.25.46A93.1,93.1,0,0,0,253,438.52a106.87,106.87,0,0,0,88.68-105.17V317.92h11a3.73,3.73,0,0,0,3.73-3.72V274.89a3.73,3.73,0,0,0-3.73-3.72h-11v-28A4.34,4.34,0,0,1,346.05,238.84ZM307.76,395.25a95.67,95.67,0,0,1-56.59,32.3l-.18,0a80.55,80.55,0,0,1-12.22,1.3c-5.41,0-12.13-.37-13.39-.44a95.36,95.36,0,0,1-61-30.74c-1.65-1.8-3.22-3.66-4.69-5.56l23.86-23.87a62.14,62.14,0,0,0,102.23.92l23.8,23.8C309,393.75,308.4,394.51,307.76,395.25Z"></path><rect class="cls-1" x="226.5" y="387.38" width="19.13" height="47.81"></rect></svg> 