<?xml version="1.0" encoding="UTF-8"?> <svg xmlns="http://www.w3.org/2000/svg" id="Layer_1" viewBox="0 0 500 500"><defs><style>.cls-1{fill:#d86e28;}</style></defs><path class="cls-1" d="M113.09,262.47v183.7h200.39l-25.5-57.54c-4.11-9.28,2.68-19.71,12.83-19.71h28.61c35.21,0,63.76-28.55,63.76-63.76v-42.7H113.09Z"></path><path class="cls-1" d="M200.76,229.16h210.92c6.13,0,11.1,4.97,11.1,11.1h0c0,6.13-4.97,11.1-11.1,11.1H200.76v-22.2h0Z"></path><path class="cls-1" d="M169.8,53.83H94.37c-9.47,0-17.15,7.68-17.15,17.15v219.32c0,9.47,7.68,17.15,17.15,17.15h75.43c9.47,0,17.15-7.68,17.15-17.15V70.98c0-9.47-7.68-17.15-17.15-17.15Zm-11.28,80.62h-23.53c-5.42,5.96-13.15,9.46-21.45,9.46-16.01,0-29.03-13.02-29.03-29.03s13.02-29.03,29.03-29.03c8.3,0,16.02,3.5,21.45,9.46h23.53c10.79,0,19.57,8.78,19.57,19.57s-8.78,19.57-19.57,19.57Z"></path><path class="cls-1" d="M158.52,106.7h-29.35c-2.95-5.62-8.84-9.46-15.63-9.46-9.75,0-17.65,7.9-17.65,17.65s7.9,17.65,17.65,17.65c6.79,0,12.68-3.84,15.63-9.46h29.35c4.52,0,8.18-3.66,8.18-8.18s-3.66-8.18-8.18-8.18Z"></path></svg> 