<?xml version="1.0" encoding="UTF-8"?> <svg xmlns="http://www.w3.org/2000/svg" id="a" data-name="Layer 1" viewBox="0 0 300 300"><defs><style> .b { fill: #d2c7be; } .b, .c { stroke-width: 0px; } .c { fill: #d86e28; } </style></defs><path class="b" d="m261.47,223.38h-10V72.92c-65.54,30.08-134.17,32.31-199.28,31.33v119.12h-10V94.08l5.09.09c67.77,1.17,139.58-.47,206.99-33.65l7.21-3.55v166.41Z"></path><path class="c" d="m23.23,70.69v194.64c35.1-11.41,71.35-18,107.77-19.83v-72.88h48.5v73.28c34.12,2.27,68.03,8.74,100.94,19.43V112.68c-83.59,1.44-173.62-.84-257.21-41.99Z"></path><rect class="c" x="153.31" y="170" width="4.88" height="73.94"></rect><g><rect class="c" x="161.03" y="204.5" width="2.97" height="14.81" rx="1.4" ry="1.4"></rect><rect class="c" x="147.5" y="204.5" width="2.97" height="14.81" rx="1.4" ry="1.4"></rect></g><path class="c" d="m183.01,246.15c-23.69-1.96-57.52-.4-57.86-.38l-.24-4.99c.34-.02,34.49-1.6,58.51.39l-.41,4.98Z"></path></svg> 