<?xml version="1.0" encoding="UTF-8"?> <svg xmlns="http://www.w3.org/2000/svg" id="a" data-name="Layer 1" viewBox="0 0 300 300"><defs><style> .b { fill: #d2c7be; } .b, .c { stroke-width: 0px; } .d { fill: none; stroke: #d2c7be; stroke-miterlimit: 10; stroke-width: 10px; } .c { fill: #d86e28; } </style></defs><path class="c" d="m271.98,28.5l-243.56-.07v219.2l20.82.27v3.98h135v-2.26l5.53.07-2.16-158.44,84.36-.3V28.5ZM117.18,175.63c-1.84-1.1-3.66-2.18-5.48-3.27-1.2.66-2.42,1.37-3.63,2.02-.73,1.42-.27,3.49-.59,5.12-.36,3.17-.43,6.34-.49,9.51-1.63-4.03-3.87-7.75-6.01-11.52-2.67-4.72-3.02-4.65-7.92-6.66-1.24-.4-2.47-1.37-3.73-1.46-1.98.65-3.96,1.32-5.94,1.95,0-.02-.02-.04-.02-.06,4.97-2.74,6.27-.56,4.61-6.88-.85.23-1.75.62-2.54.75,1.88-.93,3.58-1.99,5.27-3.27-.29-2.17.45-4.75-1.68-6.12-.78-.39-1.85.43-2.67-.04-2.56-.09-5.53,2.54-8.16,3.22,2.04-1.82,4.94-2.93,6.54-5.13.15-1.32,2.22-4.61,1.29-5.48-.35-.27-.67-.58-1.03-.89-.58.34-2.26,1.84-2.28,1.57.46-.58,1.51-.96,1.61-1.69-.43-1.57-.84-3.14-1.27-4.7-1.54-1-4.42-.42-6.29-.96,3.17-.37,6.61.44,9.43-1.38,2.47-1.9,1.46-3.04.25-5.33-.37-.59-1.29-.43-1.79-.88,1.74.59,2.12.46,2.98-1.19-1.7-1.93-3.4-3.86-5.1-5.79,1.31.55,2.47,2.38,3.76,2.41,1.78-.76,1.3-1.77,1.55-3.36,0,2,.79,2.63-1.08,3.97,1.02.7,1.99,2.93,3.15,2.77,2.37-.87,1.71-1.9,1.93-4.01.12-1.68.26-3.36.38-5.04-.1-1.09.56-2.45-.08-3.39-1.53-1.93-1.67-1.82-3.61-.33-1.35.77-3.03.58-4.53.91-.81-.13-1.37-.99-2.03-1.47.79.21,1.44,1.1,2.27,1.03,1.85-.24,7.89-3.12,3.25-3.78l.02-.08c1.62.36,2.3.14,3.53-.95-.72-.74-1.48-1.43-2.27-2.13.72.15,1.35.5,1.68-.38.61-.96.67-1.74-.23-2.53-.64-.86-1.3-1.63-2.34-2.01,2.2.05,3.43,2.54,5.59,2.62-.08-1.4-.33-2.87-.33-4.19.81,2.42,1.07,5.06,2.12,7.39,1.84,2.88,3.7,5.74,5.55,8.61.42,1.21,1.32.74,2.32.52,3.83-.81,7.65-1.62,11.48-2.43.24-.05.38-.16.46-.4.6-1.71,1.21-3.41,1.83-5.12-.24-5.77-3.22-3.99-2.46-6.99.2,3.21,2.52.89,3.6,6.39,1.09,1.22,3.12,1.47,4.53,2.34,2.06.66,4.36.13,6.51.32,1.6-.32,2.64-2.03,4.08-2.74-1.01,1.13-1.95,2.41-3.21,3.28-.47.44-1.12,1.7-.94,2.31.78,1.08.46.92-.27.06-.46-.53.03-1.34.04-1.98-2.44-.25-4.86-.11-7.27.02-1.42-.16-3.26-1.71-3.68.34-.49,1.46,2.25,4.98,2.78,6.68.75.96.84,3.21,2.34,2.92,1.3-.21,2.87.25,3.99-.54,2.35-1.88,2.09-1.66.34-4.05,1.31-2.62,1.57-2.89.38.09,2.82,3.3,4.34,1.95,7.98,1.1-.89.41-1.78.8-2.66,1.24-.53.17-.12.71-.08,1.09-.58-1.13-2.21-.56-3.38-.37-1.23.28-1.93,1.29-2.52,2.32-1.05,1.02-2.73,1.22-4.01,1.95.5,1.56,1.01,3.12,1.52,4.67,2.27.18,4.56.97,6.78.7-1.03.43-.48,1.3-.34,2.15.19,1.5.64,2.79,1.6,3.97-4.6-4.43,1.34-5.8-7.79-5.05-.81.47-1.1,1.71-1.7,2.46.02,1.36.5,2.76.69,4.12,1.34.77,3.26,1.01,4.78,1.63,2.92-1.18,5.59-4,8.37-5.38-2.49,2.32-4.98,4.64-7.47,6.95.59.79,1.18,1.58,1.77,2.36.62.73.73-.31.56-.83-.31-1.05.74-1.69,1.34-2.4-.55.92-1.43,1.62-.89,2.79.22,1.05,1.58,1.45,1.19,2.68-.04,1.56-.11,3.11-.14,4.67,2.48.89,4.97,1.78,7.45,2.67-2.73.14-6.66-1.91-9.18-1.13-1.95,2.35-1.82,3.89-1.97,6.76-.12-1.24-.12-2.48-.19-3.76-2.36.03-3.93-1.56-4.25,1.59,0,1.62,1.87,2.83,2.57,4.28.54,1.02,1.76.73,2.71,1.05-.5.96.18,1.52.76,2.23.36.25.87.23,1.28.43-.5-.1-1.13.06-1.54-.29-.36-.63-1.38-1.13-1.15-1.94-1.64-.38-2.41,1.15-3.5,2.07,1.11,2.24,2.39,4.42,3.58,6.63,3.13,1.23,6.91,1.3,10.25,2.15-3.82-.13-7.63-.26-11.49-.39-.07,2.57.14,5.35-.07,7.76-1.58-6.31-.25-6.56-5.54-11.06-.91,1.27-2.65,2.23-1.06,3.64.39.35,1.01-.13,1.49.04-3.01,1.11-1.03-1.42-5.47-1.82-.71-.07-2.79,2.42-3.22,3.1-.53,2.16-1.76,2.71.15,4.39-.52-.37-1.03-.75-1.54-1.12-1.24,1.49-2.44,2.94-3.64,4.4-.02-.01-.04-.03-.06-.04,1.12-1.53,2.25-3.07,3.38-4.59.84-1.18.64-2.85,1.53-3.99,1.05-1.38,2.77-2.44,2.63-4.35Zm4.78-38.22c-3.56-3.99-2.67-1.84-6.53.58-1.24,1.61-.63,4.28-1.95,5.87-9.99,9.16-6.69,3.96-3.78,17.77.9,2.72,1.02,5.84,2.27,8.37,2.5,2.04,4.85,4.3,7.62,5.98,5.84-8.82,5.48-3.76,1.4-11.33,1.86-4.57,3.65-9.16,5.48-13.74.15-.26.12-.45-.17-.58-8.6-5.86-5.74-2.61-4.34-12.92Zm-26.72,3.1c2.28,2.32,4.26,5.36,6.7,7.33,6.08-1.7,9.68-1.55,11.56-8.48,5.17-9,7.03-5.21,2.98-15.99-5.33,1.39-10.64,2.73-15.96,4.14-.31.08-.49.23-.6.54-1.55,4.17-3.11,8.28-4.67,12.46Zm3.77,29.43c1.2-7.27.9-4.14-4.88-9.55-.54.52-1.07,1.02-1.6,1.53-.66.65-.41.54-1.27.38-.28-.05-.48.02-.67.18-3.35,2.15-1.77,2.67-.91,5.87,3.11.53,6.2,1.05,9.33,1.58Zm-14.83-27.63c.37,8.52,2.77,1.8,2.33,11.2,2.06.68,2.91.06,4.65-.96.31-.16.44-.37.49-.7.36-2.25.74-4.49,1.1-6.74-2.09-1.26-4.18-2.52-6.24-3.76-.79.33-1.54.64-2.33.97Zm45.47,16.95c3.83-2.91,2.79-3.64,3.2-8.04-.09-.91-1.32.1-1.93-.2-1.13,2.1-2.25,4.19-3.38,6.29.7.65,1.4,1.3,2.11,1.95Zm-38.01-47.21c-.34.75-.34,1.62-1.14,2.06,1.59,1.9.27,1.58-.19,3.03.95.18,2.46,1.47,3.16.47-.57-1.83.12-4.59-1.83-5.56Z"></path><rect class="d" x="192.5" y="95.5" width="74.5" height="172"></rect><circle class="b" cx="209.75" cy="183" r="5.7"></circle><rect class="d" x="209.75" y="118.38" width="41.25" height="45"></rect><rect class="d" x="209.75" y="202.62" width="41.25" height="45"></rect><rect class="d" x="33.25" y="251.88" width="151" height="15.62"></rect></svg> 