<?xml version="1.0" encoding="UTF-8"?> <svg xmlns="http://www.w3.org/2000/svg" id="a" data-name="Layer 1" viewBox="0 0 300 300"><defs><style> .b { fill: #d2c7be; } .b, .c { stroke-width: 0px; } .d { fill: none; stroke: #d2c7be; stroke-miterlimit: 10; stroke-width: 10px; } .c { fill: #d86e28; } </style></defs><path class="c" d="m271.98,28.5l-243.56-.07v219.2l20.82.27v3.98h135v-2.26l5.53.07-2.16-158.44,84.36-.3V28.5Zm-123.45,142.64c-3.81.24-5.22-.66-8.2-2.76-4.83-3.4-9.96-9.34-15.92-10.66-2.61-.58-7.91-.41-8.48,2.96-.22,1.34,1.25,3.7,1.59,5.04.92,3.66,2.87,3.65,6.4,4.46,1.07.25,2.94-.14,3.87.59,1.82,1.44-.31,3.06-.75,4.88-.57,2.35-.45,3.86-1.58,5.97-1.19,2.21-1.19,3.9.92,5.69l3.01,2.55,6.01,5.1-.28.37c-.05.07-7.03-4.29-7.61-4.7-2.27-1.61-4.67-3.7-4.96-6.65-.28-2.9,2.69-5.98,2.23-8.51-.45-2.45-3.95-2.63-5.87-2.92-2.49-.37-3.3-.27-4.24-2.59l-.29-.72c-1.03-2.51-1.74-5.18-3.12-7.54-.56-.96-1.27-2.23-2.24-2.84-3.14-1.98-5.36,2.71-6.97,4.56-1.86,2.13-2.43,3.03-.68,5.3,2.86,3.73,7.49,4.79,10.17,8.63.73,1.04,3.17,2.97,3.17,4.3,0,1.4-1.42,1.13-2.28,1.54-4.55,2.13-4.87,7.82-6.2,12.27l-.15-.03c-.5-.12,1.22-7.89,1.21-8.59-.05-2.98-2.77-1.93-5.26-1.39,0,0-.12-.45-.12-.45,2.61-.86,11.24-2.2,6.89-5.93-5.55-4.76-15.18-8.65-10.7-17.29.93-1.8,3.08-5.2,2.53-7.3-1.01-3.88-7.95.36-9.73,1.37-1.55.88-3.22,2.45-5.1,2.38-2.97-.11-5.13-3.75-8.08-1.35-2.15,1.75-2.16,4.92-3.72,7.09-1.53,2.14-3.08,4.29-4.45,6.67l-.41-.21c1.55-3.55,2.69-7.04,3.91-10.64.72-2.12,3.87-8.86,6.94-7.55,1.55.66,3.2,1.73,4.87,1.53,2.27-.28,2.47-2.05,4.49-2.73,3.71-1.25,6.3-1.12,5.55-5.74-.08-.47-.12-.93-.12-1.37-.03-2.95.77-4.94-2.51-5.9-2.59-.77-5.02-1.98-7.67-2.57-.79-.17-3.07-.88-3.79-.19-.93.89.15,2.44-.77,3.33-1.85,1.77-8.3-1.91-10.41-2.5-3.13-.87-5.89-2.79-9.35-2.07-2.72.57-5.41,1.85-8.03,2.79l-.17-.43s9.06-4.02,9.06-4.02c1.56-.69,5.75.38,7.47.85,1.87.51,4.91,3.41,6.75,1.34,1.98-2.24-4.61-4.84-.03-5.31,3.44-.35,7.28.76,10.61,1.28,2.46.38,4.35,2.4,6.74,2.81,2.42.41,3.13-1.45,5.27-2.43,1.54-.7,3.33-.3,5.02-.39,4.24-.24,5.01-3.14,4.5-6.81-.23-1.62.08-4.88-1.6-5.86-2.23-1.29-4.25.35-6.27-1.83-2.51-2.7-3.06-2.84-6.85-2.76-3.31.07-7.19.94-10.12-1.03-2.11-1.41-3.92-3.85-5.74-5.64l.1-.11c3.09,2.66,5.87,5.26,10.02,5.94,1.78.29,4.19-.37,6-.52,1.66-.14,3.45.24,3.79-1.67.06-.35-1.02-3.22-1.06-3.2,0,0,.41-.21.41-.21l3.01,5.18c1.57,2.7,1.75,3.8,4.94,2.57,1.93-.74,4.37-2.5,5.76.05.95,1.74,1.08,4.28,1.16,6.2.07,1.74-.3,4.28,1.36,5.56.6.46,4.72.57,5.57.48,2.43-.26,3.74-2.37,4.83-4.36,1.21-2.21,3.06-4.41,2.1-7.06-.99-2.76-2.74-3.86-.68-6.82,1.2-1.73,2.34-4.39,3.96-5.67,1.94-1.54,4.93-.93,7.23-.79l5.99.37v.46s-5.98.25-6,.25c-3.82.16-8.64,2.75-8.96,7.13-.15,2.11,3.08,3.47,3.39,5.53.23,1.53-1.09,3.43-1.67,4.83,0,0-1.5,3.57-1.51,3.61-1.1,2.61-1.11,4.02.26,6.36.99,1.71,1.92,4.62,3.86,5.49,3.92,1.74,5.44-2.53,7.08-4.74,1.07-1.44,2.87-1.85,4.62-1.36,2.13.6,2.41,1.95,4.86,1.7,1.94-.2,3.79-1.06,5.67-1.52,0,0,.05.14.05.14.35.96-5.53.92-2.66,3.96,1.19,1.26,3.55,2.09,5.07,2.98,0,0-.21.41-.21.41-1.67,3.29-13.32-11.42-15.18-1.51-1.05,5.6-9.61,2.68-10.76,8.96-.4,2.22-2.48,5.33-1.81,7.48,1.21,3.88,5.99,6.11,8.81,8.65,2.15,1.93,4.21,4.06,6.34,5.95,2.68,2.37,5.56,1.84,8.92,1.94.5.02,5.93.15,5.93.21,0,0,.01.46.01.46-3.01.25-5.96,1.03-8.98,1.22Z"></path><rect class="d" x="192.5" y="95.5" width="74.5" height="172"></rect><circle class="b" cx="209.75" cy="183" r="5.7"></circle><rect class="d" x="209.75" y="118.38" width="41.25" height="45"></rect><rect class="d" x="209.75" y="202.62" width="41.25" height="45"></rect><rect class="d" x="33.25" y="251.88" width="151" height="15.62"></rect></svg> 